<?xml version="1.0" encoding="iso-8859-1"?>
<!-- Generator: Adobe Illustrator 19.0.0, SVG Export Plug-In . SVG Version: 6.00 Build 0)  -->
<svg version="1.1" id="Capa_1" xmlns="http://www.w3.org/2000/svg" xmlns:xlink="http://www.w3.org/1999/xlink" x="0px" y="0px"
	 viewBox="0 0 512 512" style="enable-background:new 0 0 512 512;" xml:space="preserve">
<path style="fill:#F9F9F9;" d="M496,496H16V16h480V496z"/>
<path style="fill:#C1C1C1;" d="M27.5,7.5v497c0,4.143-3.357,7.5-7.5,7.5s-7.5-3.357-7.5-7.5V7.5C12.5,3.357,15.857,0,20,0
	S27.5,3.357,27.5,7.5z M492,0c-4.143,0-7.5,3.357-7.5,7.5v497c0,4.143,3.357,7.5,7.5,7.5s7.5-3.357,7.5-7.5V7.5
	C499.5,3.357,496.143,0,492,0z"/>
<path style="fill:#FFB05F;" d="M499.5,256.003c0,4.143-3.357,7.5-7.5,7.5h-9.501c-63.88,0-125.343,19.31-177.743,55.84
	l-98.434,68.621C151.391,426.259,86.962,446.5,20,446.5c-4.143,0-7.5-3.357-7.5-7.5s3.357-7.5,7.5-7.5
	c63.879,0,125.342-19.31,177.744-55.841l98.434-68.621c54.93-38.294,119.358-58.535,186.321-58.535H492
	C496.143,248.503,499.5,251.86,499.5,256.003z"/>
<path style="fill:#FF904E;" d="M40,437.167c0,11.046-8.954,20-20,20s-20-8.954-20-20c0-11.045,8.954-20,20-20S40,426.121,40,437.167
	z M492,237c-11.046,0-20,8.954-20,20c0,11.046,8.954,20,20,20s20-8.954,20-20S503.046,237,492,237z"/>
<path style="fill:#61AE9F;" d="M497.5,437.005c0,4.143-3.357,7.5-7.5,7.5h-12c-37.218,0-74.015-9.681-106.415-27.995
	c-32.399-18.314-59.67-44.85-78.862-76.736l-98.296-163.307C158.24,116.347,92.17,79,22,79c-4.143,0-7.5-3.357-7.5-7.5
	S17.857,64,22,64c37.218,0,74.016,9.681,106.415,27.995s59.67,44.849,78.863,76.735l98.296,163.307
	c36.186,60.12,102.255,97.468,172.426,97.468h12C494.143,429.505,497.5,432.862,497.5,437.005z"/>
<path style="fill:#FE5E47;" d="M499.5,70c0,4.143-3.357,7.5-7.5,7.5h-9.501c-63.852,0-125.09,19.582-177.094,56.629l-99.607,70.959
	C151.237,243.956,86.989,264.5,20,264.5c-4.143,0-7.5-3.357-7.5-7.5s3.357-7.5,7.5-7.5c63.852,0,125.09-19.582,177.095-56.629
	l99.607-70.959C351.262,83.044,415.509,62.5,482.499,62.5H492C496.143,62.5,499.5,65.857,499.5,70z"/>
<path style="fill:#DB3131;" d="M40,257c0,11.046-8.954,20-20,20s-20-8.954-20-20s8.954-20,20-20S40,245.954,40,257z M492,51.5
	c-11.046,0-20,8.955-20,20c0,11.046,8.954,20,20,20s20-8.954,20-20C512,60.455,503.046,51.5,492,51.5z"/>
<path style="fill:#43545C;" d="M40,71.5c0,11.046-8.954,20-20,20s-20-8.954-20-20c0-11.045,8.954-20,20-20S40,60.455,40,71.5z
	 M492,417.167c-11.046,0-20,8.955-20,20c0,11.046,8.954,20,20,20s20-8.954,20-20S503.046,417.167,492,417.167z"/>
<g>
</g>
<g>
</g>
<g>
</g>
<g>
</g>
<g>
</g>
<g>
</g>
<g>
</g>
<g>
</g>
<g>
</g>
<g>
</g>
<g>
</g>
<g>
</g>
<g>
</g>
<g>
</g>
<g>
</g>
</svg>
